<svg width="138" height="136" viewBox="0 0 138 136" fill="none" xmlns="http://www.w3.org/2000/svg">
<g clip-path="url(#clip0)">
<path fill-rule="evenodd" clip-rule="evenodd" d="M62.5157 35.5375C68.1286 34.4479 70.3056 32.7582 72.6905 32.8908C78.9327 34.4211 85.3164 35.6123 90.8045 39.7561C97.6949 44.9426 102.835 52.9688 104.558 62.5868C106.281 72.2048 104.265 81.6284 99.6433 89.0527C95.0215 96.4774 86.2944 102.2 78.9855 103.624C71.6766 105.049 65.0992 103.483 58.5308 101.61C55.7877 100.302 56.6169 99.5419 53.8334 98.3484L54.344 96.8141C48.557 91.653 44.3019 84.3243 42.7692 75.7403C41.0465 66.1224 43.0412 56.6939 47.6633 49.2695C52.2994 41.8894 56.9025 36.6275 62.5157 35.5375Z" fill="#ABA803"/>
<path fill-rule="evenodd" clip-rule="evenodd" d="M61.3457 35.2701C66.9589 34.1802 69.2384 32.514 71.6234 32.6466C77.9947 34.0412 84.1469 35.3447 89.6347 39.4883C96.5254 44.675 101.666 52.7012 103.388 62.3189C105.111 71.937 103.096 81.3608 98.4737 88.7852C93.8514 96.2098 85.1245 101.932 77.8156 103.356C70.5067 104.781 63.6713 102.847 57.0788 100.989C55.2057 100.086 52.4856 98.6384 53.1711 96.5665C47.3838 91.4051 43.1287 84.0764 41.5961 75.4926C39.8734 65.8746 41.868 56.4462 46.4901 49.0218C51.1295 41.6219 55.7328 36.3597 61.3457 35.2701Z" fill="#ABA803"/>
<path fill-rule="evenodd" clip-rule="evenodd" d="M56.7984 33.1572C66.0387 30.7507 75.5984 32.4412 83.576 37.1126C91.5535 41.7842 97.9691 49.4418 100.897 58.9843C103.825 68.5271 102.713 78.1571 98.5574 85.9774C94.4227 93.8023 87.2414 99.8367 78.0011 102.243C68.7608 104.65 59.1976 102.979 51.2201 98.3078C43.2426 93.6361 36.8508 85.9636 33.9227 76.4208C30.9946 66.8781 32.1036 57.2678 36.2384 49.4432C40.3733 41.6184 47.5579 35.564 56.7984 33.1572Z" fill="#DED700"/>
<path fill-rule="evenodd" clip-rule="evenodd" d="M57.1704 34.3777C66.0971 32.0643 75.3252 33.6995 83.0116 38.2012C90.6978 42.7032 96.9001 50.1055 99.7138 59.3126C102.527 68.5195 101.451 77.8069 97.4681 85.357C93.4885 92.8871 86.5554 98.7101 77.6463 101.048C68.7195 103.361 59.488 101.746 51.7846 97.2195C44.0984 92.7177 37.9165 85.3201 35.0824 76.1084C32.2655 66.9212 33.3421 57.6337 37.3249 50.0836C41.3281 42.5383 48.2644 36.6955 57.1704 34.3777Z" fill="url(#paint0_radial)"/>
<path fill-rule="evenodd" clip-rule="evenodd" d="M58.8685 40.6882C66.0415 38.7997 73.468 40.126 79.6395 43.7449C85.8286 47.3885 90.8004 53.3541 93.0542 60.8027C95.3084 68.2516 94.4439 75.7512 91.2323 81.8679C88.024 87.9648 82.4443 92.6941 75.2712 94.5829C68.0981 96.4716 60.6682 95.1648 54.4794 91.5213C48.2907 87.8778 43.3426 81.8971 41.0649 74.4635C38.8075 67.0345 39.6751 59.5151 42.8867 53.3985C46.0951 47.3017 51.6747 42.5724 58.8685 40.6882Z" fill="#232323"/>
<path fill-rule="evenodd" clip-rule="evenodd" d="M59.3902 42.4172C66.0961 40.6485 73.0266 41.8824 78.828 45.293C84.6093 48.6987 89.261 54.2816 91.3828 61.2462C93.5045 68.2107 92.6784 75.2237 89.6797 80.9558C86.664 86.6633 81.4552 91.0852 74.7492 92.8538C68.0433 94.6223 61.089 93.4039 55.3079 89.998C49.5271 86.5922 44.8953 81.0139 42.7739 74.0494C40.6522 67.0848 41.4577 60.0671 44.4734 54.3597C47.4516 48.6228 52.6844 44.1855 59.3902 42.4172Z" fill="#DED700"/>
<path fill-rule="evenodd" clip-rule="evenodd" d="M90.8102 59.5676C91.0181 60.1104 91.2021 60.6681 91.3828 61.2461C93.5045 68.2107 92.6784 75.2237 89.68 80.9561C86.6643 86.6635 81.4552 91.0852 74.7492 92.8538C68.0436 94.6226 61.089 93.4039 55.3079 89.9979C51.5248 87.7711 48.2183 84.6009 45.799 80.7048C45.5911 80.162 45.407 79.604 45.2262 79.0261C43.1046 72.0615 43.9101 65.0439 46.926 59.3362C49.9417 53.6288 55.1506 49.2069 61.8565 47.4383C68.5622 45.6699 75.4928 46.9034 81.2944 50.314C85.0842 52.5011 88.3876 55.6915 90.8102 59.5676Z" fill="url(#paint1_radial)"/>
<path d="M73.3429 87.9926C73.7397 85.607 74.1369 83.2215 74.5336 80.836C73.814 79.7841 73.0976 78.7125 72.3985 77.6653C70.0421 77.1059 67.709 76.5312 65.3559 75.952C62.9995 75.3927 60.6667 74.8177 58.3101 74.2585C58.1018 75.5108 57.89 76.7831 57.6817 78.0355C59.8502 78.5725 62.019 79.1098 64.1874 79.6468C66.3559 80.1838 68.5244 80.7209 70.6929 81.258C70.445 82.7488 70.1969 84.2399 69.949 85.7309C67.7835 85.1737 65.6183 84.6169 63.4498 84.0799C61.2847 83.523 59.1162 82.986 56.9507 82.4288C56.7423 83.6812 56.5306 84.9535 56.3222 86.2059C58.669 86.8251 61.0188 87.4241 63.3451 88.0386C65.6916 88.6576 68.0209 89.252 70.3677 89.8711C71.3415 89.2684 72.342 88.6304 73.3429 87.9926ZM75.3505 75.9257C75.5655 74.6335 75.7806 73.3414 75.9956 72.0493C75.1335 71.8522 74.2512 71.6506 73.3893 71.4532C72.5274 71.2564 71.6452 71.0548 70.7833 70.8574C71.114 68.8698 71.445 66.8818 71.7754 64.8939C71.0525 63.8618 70.3297 62.8297 69.6066 61.7979C68.557 61.5785 67.4897 61.3347 66.4431 61.0952C65.3935 60.8758 64.3262 60.632 63.2799 60.3928C62.279 61.0306 61.2748 61.6882 60.2743 62.3262C59.7383 65.5467 59.2024 68.7671 58.6702 71.9677C61.4574 72.6256 64.221 73.2987 67.0087 73.9566C69.7992 74.5947 72.563 75.268 75.3505 75.9257ZM67.1168 69.978C65.7211 69.659 64.326 69.3401 62.9543 69.0058C63.209 67.475 63.4637 65.9443 63.7183 64.4135C65.0113 64.7092 66.3039 65.0047 67.6205 65.2852C67.723 65.3087 67.8053 65.3273 67.908 65.351C67.6294 66.8967 67.3714 68.4472 67.1168 69.978ZM77.4574 63.2628C77.6987 61.8115 77.9401 60.3603 78.1818 58.9092C77.3343 58.2407 76.4632 57.5873 75.5954 56.9147C74.7447 56.2659 73.8768 55.5928 73.0057 54.9399C74.0288 54.6784 75.0351 54.3927 76.0585 54.1314C77.0849 53.8501 78.0879 53.5841 79.1146 53.303C79.356 51.8517 79.5938 50.4205 79.8355 48.9695C78.3176 49.3857 76.8203 49.8071 75.3027 50.2236C73.7848 50.6398 72.2703 51.0368 70.7765 51.4381C69.4902 50.463 68.2007 49.5076 66.9349 48.5376C65.6454 47.5823 64.356 46.627 63.0663 45.672C62.8316 47.0833 62.5966 48.4949 62.3619 49.9062C63.233 50.5595 64.0837 51.2078 64.9548 51.8611C65.8262 52.5142 66.6733 53.1825 67.5445 53.8359C66.5417 54.1015 65.5186 54.363 64.4952 54.6243C63.4717 54.8856 62.4724 55.1316 61.449 55.3929C61.214 56.8045 60.9793 58.2158 60.741 59.6471C62.2524 59.2705 63.7634 58.8936 65.2747 58.517C66.7857 58.1401 68.3003 57.7436 69.7909 57.3621C71.0771 58.3372 72.3601 59.3322 73.6224 60.3222C74.8917 61.2727 76.1744 62.2679 77.4574 63.2628Z" fill="#232323"/>
</g>
<defs>
<radialGradient id="paint0_radial" cx="0" cy="0" r="1" gradientUnits="userSpaceOnUse" gradientTransform="translate(38.9306 62.6432) rotate(-80.5538) scale(34.9946 36.4872)">
<stop stop-color="#FFF915"/>
<stop offset="1" stop-color="#ECE735"/>
</radialGradient>
<radialGradient id="paint1_radial" cx="0" cy="0" r="1" gradientUnits="userSpaceOnUse" gradientTransform="translate(59.7308 51.7433) rotate(-80.5538) scale(24.3153 25.3524)">
<stop stop-color="#FFF915"/>
<stop offset="1" stop-color="#ECE735"/>
</radialGradient>
<clipPath id="clip0">
<rect width="93.6616" height="100.866" fill="white" transform="translate(0 73.6314) rotate(-51.8266)"/>
</clipPath>
</defs>
</svg>
