<svg width="199" height="205" viewBox="0 0 199 205" fill="none" xmlns="http://www.w3.org/2000/svg">
<g clip-path="url(#clip0)">
<path fill-rule="evenodd" clip-rule="evenodd" d="M113.021 52.6825C121.585 54.9763 125.768 54.0996 129.002 55.9044C136.664 62.2778 144.754 68.2744 149.589 77.7787C155.671 89.689 157.385 104.369 153.253 118.946C149.121 133.524 139.911 145.291 128.425 152.501C116.939 159.711 100.886 161.76 89.7303 158.781C78.5744 155.802 70.4693 149.151 62.5855 142.078C59.6502 138.392 61.3222 137.896 58.2528 134.341L60.0067 132.55C55.4456 121.424 54.4922 108.318 58.1865 95.3109C62.3182 80.7336 71.5033 68.9455 82.9895 61.7357C94.4651 54.5973 104.456 50.389 113.021 52.6825Z" fill="#ABA803"/>
<path fill-rule="evenodd" clip-rule="evenodd" d="M111.572 51.5149C120.137 53.8085 124.446 53.0343 127.681 54.8391C135.615 61.111 143.305 67.107 148.14 76.6107C154.223 88.5215 155.936 103.201 151.804 117.778C147.672 132.356 138.462 144.123 126.976 151.333C115.489 158.543 99.4373 160.592 88.2814 157.613C77.1255 154.634 68.911 147.294 60.9834 140.226C58.9855 137.695 56.1769 133.83 58.5399 131.408C53.9785 120.282 53.0252 107.175 56.7196 94.1686C60.8513 79.5913 70.0362 67.8033 81.5224 60.5935C93.016 53.4297 103.007 49.2212 111.572 51.5149Z" fill="#ABA803"/>
<path fill-rule="evenodd" clip-rule="evenodd" d="M106.668 45.4808C121.183 48.4028 133.361 57.2529 141.309 69.1835C149.256 81.1146 152.997 96.1469 150.597 111.438C148.197 126.729 140.105 139.398 129 147.476C117.921 155.575 103.812 159.109 89.2961 156.187C74.7807 153.265 62.5847 144.441 54.6375 132.51C46.6904 120.579 42.9922 105.542 45.3926 90.2503C47.793 74.959 55.8668 62.3159 66.9457 54.2172C78.0247 46.1184 92.1523 42.5591 106.668 45.4808Z" fill="#DED700"/>
<path fill-rule="evenodd" clip-rule="evenodd" d="M106.358 47.4348C120.373 50.2735 132.126 58.8214 139.782 70.3178C147.438 81.8144 151.056 96.346 148.724 111.092C146.392 125.837 138.583 138.052 127.903 145.871C117.24 153.665 103.621 157.073 89.6133 154.28C75.5984 151.441 63.8272 142.918 56.1636 131.376C48.5071 119.88 44.9147 105.368 47.2213 90.6025C49.5352 75.8825 57.3446 63.6673 68.025 55.848C78.7306 48.0493 92.3685 44.6162 106.358 47.4348Z" fill="url(#paint0_radial)"/>
<path fill-rule="evenodd" clip-rule="evenodd" d="M104.438 57.385C115.72 59.6249 125.171 66.5182 131.316 75.7549C137.468 85.0381 140.347 96.7311 138.429 108.645C136.511 120.56 130.212 130.427 121.58 136.772C112.967 143.091 101.976 145.894 90.6942 143.654C79.4122 141.415 69.9427 134.546 63.7907 125.263C57.6387 115.981 54.8038 104.283 56.678 92.3733C58.5776 80.4841 64.8947 70.5917 73.5264 64.2469C82.1402 57.9274 93.1304 55.1249 104.438 57.385Z" fill="#232323"/>
<path fill-rule="evenodd" clip-rule="evenodd" d="M103.991 60.1494C114.54 62.2391 123.363 68.6667 129.133 77.3617C134.879 86.0362 137.571 96.9784 135.798 108.128C134.025 119.278 128.109 128.492 120.036 134.446C111.955 140.353 101.69 142.979 91.141 140.89C80.5919 138.8 71.7255 132.377 65.9803 123.703C60.2354 115.028 57.568 104.106 59.3416 92.9569C61.1149 81.8073 67.0046 72.572 75.0852 66.6645C83.1336 60.6905 93.4421 58.0595 103.991 60.1494Z" fill="#DED700"/>
<path fill-rule="evenodd" clip-rule="evenodd" d="M136.14 105.399C136.061 106.297 135.938 107.199 135.798 108.128C134.025 119.278 128.109 128.492 120.036 134.446C111.955 140.354 101.69 142.979 91.141 140.89C80.5922 138.8 71.7255 132.377 65.9803 123.703C62.2194 118.029 59.7636 111.364 59.0378 104.289C59.1167 103.391 59.239 102.488 59.3795 101.56C61.153 90.4105 67.0426 81.1753 75.1237 75.2676C83.2043 69.3601 93.469 66.7343 104.018 68.824C114.567 70.9139 123.39 77.3411 129.161 86.0362C132.958 91.6592 135.396 98.3505 136.14 105.399Z" fill="url(#paint1_radial)"/>
<path d="M92.4828 133.158C94.6563 130.102 96.8304 127.046 99.0037 123.991C98.7151 122.035 98.4446 120.055 98.1813 118.12C95.2765 115.74 92.4147 113.354 89.5279 110.948C86.623 108.568 83.7618 106.182 80.8566 103.802C79.7155 105.406 78.5562 107.036 77.415 108.64C80.073 110.861 82.7313 113.083 85.3893 115.305C88.0474 117.527 90.7054 119.748 93.3633 121.97C92.0051 123.88 90.6465 125.79 89.288 127.7C86.6479 125.452 84.008 123.205 81.3499 120.984C78.71 118.737 76.052 116.515 73.4118 114.267C72.2706 115.872 71.1113 117.501 69.9701 119.106C72.8208 121.563 75.6895 123.994 78.5149 126.431C81.3653 128.887 84.2086 131.298 87.0593 133.755C88.8262 133.577 90.6544 133.367 92.4828 133.158ZM103.478 117.701C104.655 116.045 105.833 114.39 107.01 112.735C105.942 111.875 104.849 110.995 103.782 110.134C102.714 109.274 101.621 108.394 100.554 107.533C102.365 104.987 104.177 102.441 105.988 99.8941C105.681 97.9644 105.375 96.0347 105.068 94.1053C103.754 93.0865 102.431 92.0216 101.135 90.9769C99.821 89.9581 98.4989 88.8932 97.2028 87.8491C95.3744 88.0583 93.5279 88.2929 91.6998 88.5026C88.7652 92.6277 85.8305 96.7529 82.9147 100.853C86.3531 103.663 89.7481 106.479 93.1873 109.289C96.6437 112.074 100.039 114.89 103.478 117.701ZM96.0404 103.817C94.3116 102.424 92.5835 101.032 90.8985 99.6342C92.2933 97.6733 93.6881 95.7125 95.0829 93.7516C96.6843 95.0421 98.2855 96.332 99.9303 97.6174C100.057 97.7197 100.159 97.8015 100.286 97.9044C98.848 99.8697 97.4352 101.856 96.0404 103.817ZM115.016 101.48C116.339 99.621 117.661 97.7619 118.983 95.9033C118.256 94.3958 117.486 92.8933 116.733 91.3661C115.988 89.884 115.235 88.3561 114.464 86.8543C116.068 87.1847 117.665 87.47 119.269 87.8009C120.891 88.106 122.47 88.4165 124.092 88.7221C125.414 86.863 126.718 85.0295 128.04 83.1709C125.642 82.7201 123.268 82.2905 120.87 81.8402C118.471 81.3894 116.09 80.914 113.735 80.4587C112.605 78.2256 111.456 76.018 110.351 73.8059C109.202 71.5984 108.054 69.3909 106.904 67.1836C105.619 68.9915 104.332 70.7996 103.046 72.6074C103.817 74.1098 104.562 75.5915 105.333 77.0938C106.104 78.5962 106.831 80.1031 107.601 81.6057C106.023 81.2948 104.419 80.9644 102.815 80.6335C101.211 80.3025 99.651 79.9665 98.0469 79.6357C96.7605 81.4438 95.4747 83.2517 94.1703 85.0851C96.5329 85.5866 98.8952 86.0877 101.258 86.5892C103.62 87.0902 106.001 87.5664 108.338 88.0471C109.468 90.2801 110.581 92.5385 111.668 94.776C112.792 96.9631 113.904 99.2217 115.016 101.48Z" fill="#232323"/>
</g>
<defs>
<radialGradient id="paint0_radial" cx="0" cy="0" r="1" gradientUnits="userSpaceOnUse" gradientTransform="translate(61.732 74.4463) rotate(-54.5743) scale(54.2648 56.5793)">
<stop stop-color="#FFF915"/>
<stop offset="1" stop-color="#ECE735"/>
</radialGradient>
<radialGradient id="paint1_radial" cx="0" cy="0" r="1" gradientUnits="userSpaceOnUse" gradientTransform="translate(98.1308 73.3811) rotate(-54.5744) scale(37.7048 39.313)">
<stop stop-color="#FFF915"/>
<stop offset="1" stop-color="#ECE735"/>
</radialGradient>
<clipPath id="clip0">
<rect width="145.238" height="156.41" fill="white" transform="translate(0 63.3194) rotate(-25.8471)"/>
</clipPath>
</defs>
</svg>
