<svg width="188" height="188" viewBox="0 0 188 188" fill="none" xmlns="http://www.w3.org/2000/svg">
<g clip-path="url(#clip0)">
<path fill-rule="evenodd" clip-rule="evenodd" d="M81.8728 162.536C74.7252 161.776 67.82 159.263 61.4894 155.378C55.2377 151.468 49.483 146.212 44.585 139.94C39.6987 133.705 35.6581 126.419 32.7782 118.547C29.8879 110.639 28.1471 102.108 27.8385 93.3134C27.53 84.5183 28.7341 76.2888 31.0865 68.9891C33.4275 61.6522 37.0347 55.2064 41.5218 49.9415C45.9803 44.727 51.4365 40.6546 57.5261 38.0886C63.615 35.523 70.3877 34.488 77.5358 35.2482C84.7232 35.9954 91.6284 38.5082 97.9192 42.4057C104.249 46.2903 110.004 51.5468 114.902 57.8185C119.789 64.0531 123.829 71.34 126.67 79.2244C129.56 87.133 131.301 95.663 131.609 104.458C131.918 113.253 130.753 121.469 128.362 128.782C125.97 136.095 122.413 142.565 117.926 147.83C113.44 153.095 108.023 157.154 101.883 159.696C95.8328 162.248 89.0601 163.284 81.8728 162.536Z" fill="url(#paint0_linear)"/>
<path fill-rule="evenodd" clip-rule="evenodd" d="M82.4604 161.486C57.6032 160.202 41.7119 141.003 34.0855 119.996C31.1046 111.79 29.2733 102.963 28.9135 93.8587C28.5023 84.7301 29.6551 76.1909 31.9789 68.6556C34.3306 61.0704 37.9092 54.3892 42.441 48.9873C46.8934 43.6114 52.3383 39.5019 58.4166 36.8989C67.5796 32.5101 77.1893 29.1586 86.5337 25.3633C97.7433 54.9911 156.819 73.6338 128.856 137.761C130.316 141.69 131.548 144.877 132.996 148.77C117.068 154.926 98.1027 162.321 82.4604 161.486Z" fill="url(#paint1_linear)"/>
<path fill-rule="evenodd" clip-rule="evenodd" d="M109.839 153.05C102.668 152.215 95.7403 149.628 89.4154 145.619C83.0911 141.61 77.2511 136.219 72.3082 129.798C67.3762 123.415 63.2787 115.943 60.3539 107.924C57.4181 99.8662 55.6208 91.1507 55.2669 82.2073C54.9131 73.2637 56.0605 64.8487 58.3676 57.4005C60.6747 49.9524 64.248 43.3953 68.7121 38.0565C73.1876 32.7546 78.5931 28.658 84.7101 26.0423C90.7992 23.4766 97.5721 22.4416 104.771 23.226C111.941 24.0603 118.881 26.6844 125.233 30.6432C131.598 34.6391 137.398 40.0439 142.33 46.4269C147.273 52.847 151.359 60.2824 154.295 68.3395C157.231 76.3958 159.028 85.112 159.343 94.0679C159.697 103.012 158.577 111.377 156.27 118.825C153.963 126.273 150.39 132.83 145.925 138.169C141.461 143.508 136.044 147.567 129.927 150.183C123.782 152.849 117.01 153.883 109.839 153.05Z" fill="#DED700"/>
<path fill-rule="evenodd" clip-rule="evenodd" d="M110.693 150.893C103.702 150.081 96.942 147.48 90.7304 143.556C84.5177 139.633 78.8303 134.314 74.0109 128.017C69.1919 121.719 65.2019 114.456 62.3107 106.548C59.4204 98.6391 57.6683 90.0719 57.2811 81.3027C56.9333 72.5204 58.0194 64.3295 60.2819 57.0184C62.5444 49.7073 65.9831 43.2759 70.3634 38.0868C74.721 32.8236 79.992 28.8527 85.9632 26.3256C91.8952 23.8113 98.5501 22.815 105.541 23.6266C112.543 24.4753 119.331 27.0267 125.543 30.9499C131.755 34.8732 137.392 40.1682 142.211 46.4657C147.031 52.7631 151.071 60.0501 153.962 67.9588C156.814 75.8802 158.605 84.4345 158.953 93.2162C159.34 101.986 158.226 110.227 156.003 117.525C153.74 124.836 150.29 131.231 145.921 136.456C141.552 141.683 136.292 145.69 130.321 148.218C124.338 150.708 117.683 151.704 110.693 150.893Z" fill="url(#paint2_radial)"/>
<path fill-rule="evenodd" clip-rule="evenodd" d="M111.263 138.749C100.282 137.326 90.1129 130.21 82.5193 119.924C78.7368 114.756 75.6205 108.799 73.3796 102.31C71.1498 95.8583 69.7168 88.9005 69.3894 81.744C68.814 67.4048 72.7548 54.9734 79.5595 46.5418C86.3529 38.0731 96.0889 33.5783 107.059 34.9638C118.04 36.3864 128.249 43.4894 135.803 53.788C139.586 58.9558 142.753 64.9376 144.982 71.3892C147.263 77.8658 148.617 84.8488 148.944 92.0056C149.559 106.332 145.607 118.726 138.774 127.207C131.97 135.64 122.245 140.171 111.263 138.749Z" fill="#232323"/>
<path fill-rule="evenodd" clip-rule="evenodd" d="M111.119 135.164C101.076 133.842 91.7787 127.175 84.8159 117.54C81.3659 112.753 78.492 107.165 76.3983 101.158C74.3436 95.1384 73.0464 88.6259 72.749 81.99C72.2096 68.6185 75.8155 57.0722 82.0262 49.2431C88.2762 41.4012 97.1198 37.2396 107.213 38.5857C117.267 39.9447 126.593 46.5616 133.505 56.1728C136.967 60.997 139.829 66.548 141.934 72.5919C144 78.6483 145.286 85.1239 145.544 91.7726C146.072 105.107 142.494 116.603 136.255 124.482C130.045 132.311 121.162 136.486 111.119 135.164Z" fill="#DED700"/>
<path fill-rule="evenodd" clip-rule="evenodd" d="M80.8332 50.8582C86.6015 45.8267 93.8875 43.3586 101.952 44.4307C112.006 45.7896 121.332 52.4065 128.244 62.0177C131.706 66.8419 134.568 72.3925 136.673 78.4367C138.739 84.4931 139.905 88.0287 140.283 97.6175C140.661 107.206 137.628 121.054 132.103 128.862C126.335 133.894 120.049 136.524 110.984 135.29C101.958 134.043 91.6434 127.301 84.6807 117.666C81.2306 112.879 78.3568 107.291 76.2637 101.284C74.1977 95.227 73.0429 91.7285 72.6138 82.1161C72.2753 72.5146 75.2685 58.6797 80.8332 50.8582Z" fill="#F7F123"/>
<path d="M89.0748 110.962C92.3647 109.844 95.6146 108.739 98.9038 107.62C99.6068 105.676 100.321 103.769 100.985 101.838C100.339 99.7236 99.7046 97.6457 99.0589 95.5315C98.413 93.4166 97.7673 91.3024 97.1216 89.1878C96.4758 87.0733 95.83 84.9587 95.1956 82.8813C94.5498 80.7668 93.904 78.6522 93.2582 76.5377C91.5179 77.0668 89.7498 77.646 88.0095 78.1752C88.6099 80.1414 89.199 82.0704 89.7602 84.0494C90.3607 86.0156 90.9498 87.9447 91.5503 89.9108C92.1507 91.877 92.7397 93.8058 93.3404 95.7723C93.9407 97.7381 94.5413 99.7046 95.1302 101.633C93.0479 102.316 91.0044 102.985 88.9726 103.691C88.372 101.725 87.8112 99.7458 87.2106 97.7802C86.6097 95.8138 86.0491 93.8346 85.4483 91.8686C84.8476 89.9026 84.2869 87.9234 83.6862 85.9574C83.0862 83.991 82.5247 82.0121 81.924 80.0461C80.1955 80.6122 78.4156 81.1544 76.6758 81.6834C77.2931 83.8481 77.8998 85.9754 78.5572 88.127C79.1745 90.2917 79.8205 92.4061 80.4385 94.5705C81.0558 96.7352 81.7017 98.8494 82.3199 101.014C82.9764 103.166 83.5833 105.293 84.2011 107.457C85.8166 108.643 87.4317 109.828 89.0748 110.962ZM105.73 105.344C107.526 104.715 109.294 104.136 111.062 103.556C110.547 102.011 110.083 100.49 109.607 98.9325C109.131 97.3742 108.627 95.8658 108.14 94.271C110.891 93.3699 113.641 92.4689 116.392 91.5679C117.067 89.6736 117.742 87.7794 118.417 85.8851C117.811 84.0435 117.205 82.2012 116.6 80.3595C115.994 78.5175 115.388 76.6755 114.822 74.8207C113.167 73.6487 111.524 72.5138 109.88 71.3789C105.417 72.7591 100.955 74.1393 96.4637 75.5694C97.2228 78.0549 97.9818 80.5404 98.7802 83.013C99.5393 85.4985 100.338 87.9712 101.097 90.4568C101.856 92.9421 102.654 95.4151 103.413 97.9004C104.172 100.386 104.971 102.859 105.73 105.344ZM106.118 87.7914C105.359 85.3062 104.572 82.8707 103.813 80.3852C105.896 79.7031 108.029 79.0452 110.151 78.3502C110.892 80.6373 111.634 82.9243 112.376 85.2118C112.421 85.3603 112.478 85.5457 112.535 85.7313C110.373 86.4387 108.251 87.1339 106.118 87.7914ZM123.17 99.4684C125.163 98.7747 127.167 98.1186 129.171 97.462C129.262 95.6365 129.38 93.7611 129.472 91.9362C129.562 90.1108 129.653 88.2853 129.733 86.4227C130.939 87.8237 132.144 89.2241 133.311 90.6379C134.517 92.0383 135.683 93.4516 136.889 94.8526C138.882 94.1588 140.886 93.5028 142.878 92.8091C141.12 90.7324 139.334 88.7058 137.565 86.592C135.807 84.5154 134.049 82.4388 132.24 80.3372C132.368 77.6432 132.485 74.9114 132.625 72.2545C132.752 69.5597 132.88 66.8652 132.997 64.1337C131.072 64.7644 129.096 65.3708 127.12 65.9772C127.029 67.8025 126.938 69.6278 126.836 71.4161C126.745 73.2414 126.654 75.0667 126.524 76.9049C125.346 75.4544 124.179 74.0408 123.013 72.6274C121.846 71.2139 120.669 69.7633 119.502 68.3499C117.526 68.9563 115.55 69.5627 113.585 70.2062C115.327 72.37 117.057 74.4966 118.787 76.6233C120.517 78.7501 122.298 80.9009 124.056 82.9775C123.9 85.7222 123.744 88.4662 123.588 91.2109C123.482 93.9798 123.326 96.7238 123.17 99.4684Z" fill="#232323"/>
</g>
<defs>
<linearGradient id="paint0_linear" x1="89.4043" y1="151.229" x2="66.6552" y2="47.2937" gradientUnits="userSpaceOnUse">
<stop stop-color="#CBC401"/>
<stop offset="0.4196" stop-color="#ABA803"/>
<stop offset="0.7608" stop-color="#DED700"/>
<stop offset="1" stop-color="#CBC401"/>
</linearGradient>
<linearGradient id="paint1_linear" x1="92.4993" y1="152.026" x2="67.6775" y2="40.7968" gradientUnits="userSpaceOnUse">
<stop stop-color="#CBC401"/>
<stop offset="0.2118" stop-color="#948A02"/>
<stop offset="0.4196" stop-color="#ABA803"/>
<stop offset="0.7608" stop-color="#FFF71A"/>
<stop offset="1" stop-color="#CBC401"/>
</linearGradient>
<radialGradient id="paint2_radial" cx="0" cy="0" r="1" gradientUnits="userSpaceOnUse" gradientTransform="translate(134.856 62.0291) rotate(-18.1357) scale(69.5368 65.2193)">
<stop stop-color="#FFF915"/>
<stop offset="1" stop-color="#ECE735"/>
</radialGradient>
<clipPath id="clip0">
<rect width="139.971" height="139.01" fill="white" transform="translate(125.048 0.352539) rotate(63.6874)"/>
</clipPath>
</defs>
</svg>
