<svg width="197" height="197" viewBox="0 0 197 197" fill="none" xmlns="http://www.w3.org/2000/svg">
<g clip-path="url(#clip0)">
<path fill-rule="evenodd" clip-rule="evenodd" d="M28.5081 101.667C27.7176 94.5227 28.691 87.2393 31.1279 80.2228C33.6063 73.2781 37.5063 66.53 42.5813 60.4011C47.6235 54.2913 53.8741 48.782 60.9448 44.2811C68.0496 39.7619 76.0079 36.2324 84.5322 34.0448C93.0564 31.8573 101.353 31.2685 108.987 32.0007C116.655 32.7138 123.725 34.8548 129.829 38.1085C135.879 41.3449 141.027 45.8008 144.839 51.1984C148.65 56.5954 151.114 62.9887 151.904 70.1335C152.716 77.3139 151.742 84.5973 149.285 91.5776C146.848 98.5935 142.948 105.342 137.872 111.471C132.831 117.58 126.58 123.09 119.488 127.555C112.383 132.075 104.425 135.604 95.9013 137.791C87.3769 139.979 79.1017 140.603 71.4461 139.836C63.7905 139.068 56.7084 136.981 50.6038 133.728C44.4994 130.475 39.3728 126.054 35.5732 120.602C31.7829 115.24 29.3191 108.847 28.5081 101.667Z" fill="url(#paint0_linear)"/>
<path fill-rule="evenodd" clip-rule="evenodd" d="M29.6591 102.016C25.5833 77.4615 40.9271 57.8227 59.8103 45.8687C67.1855 41.1974 75.4143 37.5158 84.23 35.2117C93.0581 32.8525 101.646 32.1472 109.504 32.8009C117.417 33.4712 124.71 35.5337 130.959 38.8016C137.164 41.9976 142.346 46.4345 146.192 51.8131C152.443 59.8217 157.778 68.4891 163.489 76.8022C136.954 94.1048 131.414 155.804 62.7825 142.244C59.2576 144.512 56.4089 146.4 52.9177 148.649C43.4888 134.411 32.1989 117.473 29.6591 102.016Z" fill="url(#paint1_linear)"/>
<path fill-rule="evenodd" clip-rule="evenodd" d="M43.7711 126.948C43.0488 119.765 44.0897 112.444 46.6486 105.406C49.2079 98.3694 53.2217 91.5091 58.433 85.3042C63.6095 79.1182 70.0297 73.5134 77.235 68.9369C84.4752 64.3414 92.6025 60.7169 101.262 58.4533C109.922 56.1897 118.387 55.5058 126.157 56.1619C133.926 56.818 141.097 58.902 147.269 62.1173C153.407 65.3516 158.568 69.7528 162.435 75.1666C166.246 80.5638 168.71 86.9572 169.487 94.1565C170.21 101.339 169.135 108.68 166.631 115.734C164.093 122.807 160.058 129.631 154.881 135.817C149.67 142.022 143.284 147.608 136.044 152.203C128.805 156.799 120.677 160.424 111.997 162.651C103.337 164.915 94.9268 165.616 87.157 164.96C79.3877 164.303 72.2164 162.219 66.0448 159.004C59.8726 155.789 54.746 151.368 50.8792 145.954C46.9576 140.524 44.4945 134.131 43.7711 126.948Z" fill="#DED700"/>
<path fill-rule="evenodd" clip-rule="evenodd" d="M46.0609 127.32C45.355 120.317 46.4456 113.157 48.9455 106.248C51.4454 99.3387 55.4212 92.6429 60.5382 86.5852C65.6563 80.5277 71.894 75.0731 78.9984 70.5532C86.1032 66.034 94.0953 62.4854 102.578 60.2267C111.081 58.0035 119.314 57.3078 126.94 57.9497C134.567 58.5917 141.586 60.5712 147.593 63.7368C153.669 66.8642 158.678 71.161 162.427 76.4513C166.154 81.7061 168.555 87.9925 169.261 94.9948C169.934 102.016 168.897 109.193 166.398 116.102C163.898 123.011 159.935 129.652 154.818 135.71C149.7 141.768 143.449 147.277 136.345 151.797C129.219 156.281 121.248 159.865 112.745 162.088C104.263 164.347 95.9747 165.026 88.3692 164.419C80.7433 163.777 73.7574 161.779 67.7164 158.632C61.6747 155.485 56.6322 151.208 52.8831 145.917C49.1679 140.608 46.7675 134.321 46.0609 127.32Z" fill="url(#paint2_radial)"/>
<path fill-rule="evenodd" clip-rule="evenodd" d="M58.0449 125.273C57.0795 114.242 61.8488 102.783 70.2668 93.1602C74.5034 88.3575 79.6539 84.0361 85.5111 80.4557C91.3348 76.8941 97.8233 74.0023 104.743 72.1479C118.625 68.5108 131.613 69.6939 141.307 74.532C151.036 79.3513 157.514 87.8968 158.513 98.9086C159.479 109.939 154.73 121.434 146.291 131.021C142.055 135.824 136.892 140.2 131.068 143.761C125.231 147.378 118.701 150.198 111.781 152.053C97.9199 155.725 84.9668 154.523 75.2173 149.668C65.5221 144.83 59.0105 136.304 58.0449 125.273Z" fill="#232323"/>
<path fill-rule="evenodd" clip-rule="evenodd" d="M61.5155 124.363C60.6528 114.27 65.1709 103.759 73.0887 94.892C77.0245 90.4956 81.866 86.4903 87.2837 83.1572C92.7228 79.8592 98.8056 77.1956 105.223 75.4821C118.168 72.0876 130.219 73.1334 139.198 77.5207C148.198 81.9435 154.159 89.6889 155.009 99.8362C155.838 109.948 151.375 120.476 143.469 129.288C139.5 133.703 134.692 137.69 129.24 141.042C123.767 144.358 117.718 147.003 111.28 148.681C98.3685 152.057 86.3727 151.027 77.3391 146.624C68.3603 142.236 62.3777 134.456 61.5155 124.363Z" fill="#DED700"/>
<path fill-rule="evenodd" clip-rule="evenodd" d="M137.364 76.7017C143.516 81.2568 147.489 87.844 148.172 95.9509C149 106.063 144.537 116.59 136.632 125.403C132.663 129.818 127.855 133.804 122.403 137.157C116.93 140.473 113.727 142.37 104.442 144.796C95.1584 147.222 80.9824 147.229 72.1705 143.507C66.0191 138.952 62.1021 133.377 61.3636 124.258C60.6455 115.175 65.0188 103.654 72.9366 94.7869C76.8724 90.3905 81.7139 86.3852 87.132 83.0527C92.605 79.7358 95.7745 77.8575 105.071 75.377C114.377 72.9873 128.532 72.9439 137.364 76.7017Z" fill="#F7F123"/>
<path d="M80.4262 97.6413C82.2242 100.615 84.0007 103.552 85.7982 106.525C87.8479 106.795 89.8639 107.083 91.8926 107.317C93.8192 106.233 95.7126 105.168 97.6392 104.084C99.5663 102.999 101.493 101.915 103.42 100.831C105.347 99.747 107.273 98.6627 109.167 97.5975C111.093 96.5133 113.02 95.4291 114.947 94.3448C114.057 92.7585 113.112 91.1557 112.222 89.5694C110.43 90.5775 108.673 91.5666 106.86 92.5391C105.068 93.5473 103.31 94.5365 101.519 95.5446C99.7272 96.5527 97.9695 97.5417 96.1776 98.5501C94.3863 99.558 92.5943 100.566 90.8368 101.555C89.7238 99.6676 88.6315 97.8153 87.5064 95.9821C89.2975 94.974 91.1108 94.0016 92.9019 92.9935C94.6936 91.9849 96.5065 91.0128 98.298 90.0045C100.089 88.9961 101.902 88.024 103.694 87.0156C105.486 86.0079 107.298 85.0351 109.09 84.0267C108.166 82.4598 107.255 80.8377 106.365 79.2518C104.383 80.3189 102.435 81.3677 100.475 82.4712C98.4928 83.5384 96.5661 84.6228 94.5846 85.6906C92.6026 86.7578 90.6761 87.8421 88.6943 88.9101C86.7336 90.0127 84.7856 91.0618 82.8044 92.1294C81.993 93.9615 81.1822 95.7931 80.4262 97.6413ZM89.4856 112.704C90.485 114.324 91.4302 115.926 92.3753 117.529C93.7738 116.695 95.16 115.915 96.5794 115.116C97.9994 114.317 99.3646 113.501 100.818 112.684C102.288 115.177 103.758 117.67 105.228 120.163C107.223 120.416 109.218 120.67 111.213 120.923C112.881 119.936 114.551 118.949 116.22 117.963C117.889 116.976 119.558 115.989 121.249 115.038C122.038 113.171 122.794 111.322 123.551 109.474C121.245 105.411 118.94 101.348 116.58 97.2681C114.315 98.5425 112.051 99.817 109.807 101.127C107.542 102.401 105.298 103.711 103.033 104.986C100.768 106.26 98.5239 107.571 96.2592 108.845C93.9946 110.119 91.7503 111.43 89.4856 112.704ZM106.713 109.319C108.978 108.045 111.188 106.754 113.453 105.479C114.565 107.367 115.666 109.309 116.799 111.233C114.725 112.448 112.65 113.663 110.575 114.878C110.439 114.954 110.27 115.049 110.101 115.144C108.947 113.185 107.813 111.262 106.713 109.319ZM98.9646 128.479C100.07 130.276 101.14 132.093 102.211 133.909C104.014 133.606 105.871 133.32 107.673 133.018C109.475 132.715 111.278 132.413 113.114 132.091C112.004 133.569 110.895 135.047 109.764 136.49C108.655 137.968 107.525 139.41 106.415 140.888C107.52 142.686 108.591 144.503 109.696 146.3C111.347 144.138 112.943 141.959 114.628 139.777C116.28 137.615 117.931 135.452 119.596 133.235C122.255 132.782 124.948 132.31 127.573 131.877C130.232 131.424 132.892 130.971 135.585 130.499C134.556 128.754 133.54 126.954 132.524 125.154C130.721 125.456 128.919 125.759 127.15 126.043C125.348 126.345 123.546 126.648 121.722 126.915C122.887 125.454 124.017 124.011 125.147 122.569C126.278 121.126 127.442 119.665 128.573 118.222C127.556 116.422 126.54 114.622 125.49 112.841C123.751 115.006 122.044 117.152 120.338 119.298C118.632 121.444 116.913 123.644 115.262 125.807C112.548 126.243 109.834 126.679 107.12 127.115C104.393 127.606 101.679 128.042 98.9646 128.479Z" fill="#232323"/>
</g>
<defs>
<linearGradient id="paint0_linear" x1="41.1676" y1="106.598" x2="137.806" y2="62.0892" gradientUnits="userSpaceOnUse">
<stop stop-color="#CBC401"/>
<stop offset="0.4196" stop-color="#ABA803"/>
<stop offset="0.7608" stop-color="#DED700"/>
<stop offset="1" stop-color="#CBC401"/>
</linearGradient>
<linearGradient id="paint1_linear" x1="41.052" y1="109.793" x2="144.371" y2="61.6945" gradientUnits="userSpaceOnUse">
<stop stop-color="#CBC401"/>
<stop offset="0.2118" stop-color="#948A02"/>
<stop offset="0.4196" stop-color="#ABA803"/>
<stop offset="0.7608" stop-color="#FFF71A"/>
<stop offset="1" stop-color="#CBC401"/>
</linearGradient>
<radialGradient id="paint2_radial" cx="0" cy="0" r="1" gradientUnits="userSpaceOnUse" gradientTransform="translate(138.039 131.864) rotate(59.4808) scale(69.5368 65.2193)">
<stop stop-color="#FFF915"/>
<stop offset="1" stop-color="#ECE735"/>
</radialGradient>
<clipPath id="clip0">
<rect width="139.971" height="139.01" fill="white" transform="translate(196.177 109.056) rotate(141.304)"/>
</clipPath>
</defs>
</svg>
