<svg width="76" height="13" viewBox="0 0 76 13" fill="none" xmlns="http://www.w3.org/2000/svg">
<path d="M0.872283 9.34826C-0.0399492 9.97108 -0.274564 11.2155 0.348257 12.1277C0.971078 13.0399 2.21548 13.2746 3.12772 12.6517L0.872283 9.34826ZM73.2938 7.40834C74.3272 7.79839 75.4811 7.27684 75.8712 6.24343C76.2612 5.21002 75.7397 4.05608 74.7062 3.66603L73.2938 7.40834ZM3.12772 12.6517C6.19629 10.5567 11.0311 8.73079 16.9898 7.30286C22.9067 5.88492 29.7697 4.89684 36.7723 4.39085C50.866 3.37249 65.145 4.33269 73.2938 7.40834L74.7062 3.66603C65.728 0.277333 50.7414 -0.628933 36.484 0.401256C29.3111 0.919546 22.2272 1.9345 16.0576 3.413C9.92962 4.8815 4.53813 6.84543 0.872283 9.34826L3.12772 12.6517Z" fill="#FD3427"/>
</svg>
