<svg xmlns="http://www.w3.org/2000/svg" xmlns:xlink="http://www.w3.org/1999/xlink" viewBox="0 0 110.84 115.63"><defs><style>.cls-1{fill:#aba803;}.cls-1,.cls-2,.cls-3,.cls-4,.cls-5{fill-rule:evenodd;}.cls-2{fill:#ded700;}.cls-3{fill:url(#radial-gradient);}.cls-4,.cls-6{fill:#232323;}.cls-5{fill:url(#radial-gradient-2);}</style><radialGradient id="radial-gradient" cx="-635.09" cy="599.48" r="1" gradientTransform="matrix(31.45, -44.22, -46.1, -32.8, 47632.25, -8392.52)" gradientUnits="userSpaceOnUse"><stop offset="0" stop-color="#fff915"/><stop offset="1" stop-color="#ece735"/></radialGradient><radialGradient id="radial-gradient-2" cx="-635.11" cy="593.84" r="1" gradientTransform="matrix(21.86, -30.72, -32.03, -22.79, 32957.74, -5952.5)" xlink:href="#radial-gradient"/></defs><g id="Layer_2" data-name="Layer 2"><g id="Layer_1-2" data-name="Layer 1"><path class="cls-1" d="M68.35,8.21c8.57,2.3,12.75,1.42,16,3.22C92,17.81,100.08,23.8,104.92,33.31a56.57,56.57,0,0,1,3.66,41.17A58.33,58.33,0,0,1,83.76,108c-11.49,7.21-27.54,9.26-38.7,6.28s-19.26-9.63-27.14-16.7c-2.94-3.69-1.27-4.18-4.34-7.74l1.76-1.79a57.07,57.07,0,0,1-1.82-37.24,58.27,58.27,0,0,1,24.8-33.57C49.8,10.13,59.79,5.92,68.35,8.21Z"/><path class="cls-1" d="M66.9,7.05C75.47,9.34,79.78,8.56,83,10.37,91,16.64,98.64,22.64,103.47,32.14a56.57,56.57,0,0,1,3.66,41.17,58.3,58.3,0,0,1-24.82,33.55c-11.49,7.21-27.54,9.26-38.7,6.28s-19.37-10.32-27.3-17.38c-2-2.53-4.8-6.4-2.44-8.82A57.13,57.13,0,0,1,12.05,49.7a58.34,58.34,0,0,1,24.8-33.58C48.35,9,58.34,4.75,66.9,7.05Z"/><path class="cls-2" d="M62,1a54.8,54.8,0,0,1,34.64,23.7A59.65,59.65,0,0,1,105.93,67a54.7,54.7,0,0,1-21.6,36,50,50,0,0,1-39.7,8.71A54.79,54.79,0,0,1,10,88,59.62,59.62,0,0,1,.72,45.78a54.79,54.79,0,0,1,21.56-36A50.08,50.08,0,0,1,62,1Z"/><path class="cls-3" d="M61.69,3A52.89,52.89,0,0,1,95.11,25.85a57.44,57.44,0,0,1,8.94,40.77A53,53,0,0,1,83.23,101.4a48.37,48.37,0,0,1-38.29,8.41,52.92,52.92,0,0,1-33.45-22.9A57.69,57.69,0,0,1,2.55,46.13,53,53,0,0,1,23.36,11.38,48.4,48.4,0,0,1,61.69,3Z"/><path class="cls-4" d="M59.77,12.92A42.36,42.36,0,0,1,86.65,31.29a46.26,46.26,0,0,1,7.11,32.89A43.14,43.14,0,0,1,76.91,92.3,39,39,0,0,1,46,99.18a42.21,42.21,0,0,1-26.9-18.39A46.47,46.47,0,0,1,12,47.9,43.11,43.11,0,0,1,28.86,19.78,39,39,0,0,1,59.77,12.92Z"/><path class="cls-2" d="M59.32,15.68A39.51,39.51,0,0,1,84.46,32.89a43.43,43.43,0,0,1,6.67,30.77A40.35,40.35,0,0,1,75.37,90a36.61,36.61,0,0,1-28.9,6.44A39.51,39.51,0,0,1,21.31,79.23a43.38,43.38,0,0,1-6.64-30.74,40.17,40.17,0,0,1,15.75-26.3A36.33,36.33,0,0,1,59.32,15.68Z"/><path class="cls-5" d="M91.47,60.93c-.08.9-.2,1.8-.34,2.73A40.35,40.35,0,0,1,75.37,90a36.61,36.61,0,0,1-28.9,6.44A39.51,39.51,0,0,1,21.31,79.23a43.1,43.1,0,0,1-6.94-19.41c.08-.9.2-1.8.34-2.73A40.1,40.1,0,0,1,30.45,30.8a36.58,36.58,0,0,1,28.9-6.45A39.48,39.48,0,0,1,84.49,41.57,42.6,42.6,0,0,1,91.47,60.93Z"/><path class="cls-6" d="M47.81,88.69l6.52-9.17c-.28-2-.55-3.93-.82-5.87-2.9-2.38-5.76-4.77-8.65-7.17s-5.77-4.77-8.67-7.15l-3.44,4.84,8,6.67,8,6.66-4.07,5.73q-4-3.37-7.94-6.72c-2.64-2.24-5.3-4.46-7.94-6.71L25.3,74.64C28.15,77.09,31,79.52,33.85,82s5.69,4.87,8.54,7.33C44.16,89.11,46,88.9,47.81,88.69Zm11-15.46,3.53-5-3.23-2.61-3.23-2.6q2.73-3.81,5.44-7.64c-.31-1.93-.61-3.85-.92-5.78-1.32-1-2.64-2.09-3.93-3.13s-2.64-2.09-3.94-3.13L47,44,38.25,56.38c3.43,2.81,6.83,5.63,10.27,8.44S55.37,70.42,58.81,73.23ZM51.37,59.35c-1.73-1.4-3.46-2.79-5.14-4.19l4.18-5.88c1.61,1.29,3.21,2.58,4.85,3.87l.36.28C54.18,55.4,52.77,57.39,51.37,59.35Zm19-2.34,4-5.58c-.72-1.5-1.49-3-2.25-4.53s-1.49-3-2.27-4.52c1.61.34,3.21.62,4.81.95l4.82.92,4-5.55L76.2,37.37c-2.4-.45-4.78-.93-7.13-1.38-1.13-2.23-2.28-4.44-3.39-6.65l-3.45-6.63-3.85,5.43c.77,1.5,1.51,3,2.28,4.48s1.5,3,2.27,4.52c-1.58-.31-3.18-.65-4.78-1l-4.77-1c-1.29,1.8-2.57,3.61-3.88,5.45l7.09,1.5c2.36.5,4.74,1,7.08,1.46,1.13,2.23,2.24,4.49,3.33,6.73S69.23,54.75,70.35,57Z"/></g></g></svg>