<svg xmlns="http://www.w3.org/2000/svg" xmlns:xlink="http://www.w3.org/1999/xlink" viewBox="0 0 131.62 139.8"><defs><style>.cls-1,.cls-2,.cls-3,.cls-4,.cls-5,.cls-6{fill-rule:evenodd;}.cls-1{fill:url(#linear-gradient);}.cls-2{fill:url(#linear-gradient-2);}.cls-3{fill:#ded700;}.cls-4{fill:url(#radial-gradient);}.cls-5,.cls-7{fill:#232323;}.cls-6{fill:#f7f123;}</style><linearGradient id="linear-gradient" x1="63.31" y1="60.84" x2="40.56" y2="164.78" gradientTransform="matrix(1, 0, 0, -1, 0, 188.73)" gradientUnits="userSpaceOnUse"><stop offset="0" stop-color="#cbc401"/><stop offset="0.42" stop-color="#aba803"/><stop offset="0.76" stop-color="#ded700"/><stop offset="1" stop-color="#cbc401"/></linearGradient><linearGradient id="linear-gradient-2" x1="66.34" y1="60.04" x2="41.51" y2="171.27" gradientTransform="matrix(1, 0, 0, -1, 0, 188.73)" gradientUnits="userSpaceOnUse"><stop offset="0" stop-color="#cbc401"/><stop offset="0.21" stop-color="#948a02"/><stop offset="0.42" stop-color="#aba803"/><stop offset="0.76" stop-color="#fff71a"/><stop offset="1" stop-color="#cbc401"/></linearGradient><radialGradient id="radial-gradient" cx="-594.37" cy="625.47" r="1" gradientTransform="matrix(66.08, -21.64, -20.3, -61.98, 52081.94, 25940.63)" gradientUnits="userSpaceOnUse"><stop offset="0" stop-color="#fff915"/><stop offset="1" stop-color="#ece735"/></radialGradient></defs><g id="Layer_2" data-name="Layer 2"><g id="Layer_1-2" data-name="Layer 1"><path class="cls-1" d="M54.08,139.57a49,49,0,0,1-20.38-7.16A66.35,66.35,0,0,1,16.79,117,78.67,78.67,0,0,1,5,95.58,82.07,82.07,0,0,1,.05,70.34,71,71,0,0,1,3.3,46,55.1,55.1,0,0,1,13.73,27a43.35,43.35,0,0,1,16-11.85,40.1,40.1,0,0,1,20-2.84,48.21,48.21,0,0,1,20.39,7.16,64.67,64.67,0,0,1,17,15.41A77.11,77.11,0,0,1,98.88,56.26a82,82,0,0,1,4.94,25.23,70.33,70.33,0,0,1-3.25,24.32,56.19,56.19,0,0,1-10.43,19,42.52,42.52,0,0,1-16,11.87A40.46,40.46,0,0,1,54.08,139.57Z"/><path class="cls-2" d="M54.67,138.52C29.81,137.23,13.92,118,6.29,97A86.79,86.79,0,0,1,1.12,70.89a74.18,74.18,0,0,1,3.07-25.2A56.53,56.53,0,0,1,14.65,26a42.41,42.41,0,0,1,16-12.09C39.79,9.54,49.4,6.19,58.74,2.39,70,32,129,50.66,101.07,114.79c1.46,3.93,2.69,7.12,4.14,11C89.28,132,70.31,139.35,54.67,138.52Z"/><path class="cls-3" d="M82.05,130.08a48.7,48.7,0,0,1-20.43-7.43,67.32,67.32,0,0,1-17.1-15.82A82,82,0,0,1,32.56,85a85.18,85.18,0,0,1-5.08-25.71,73.94,73.94,0,0,1,3.1-24.81A55.79,55.79,0,0,1,40.92,15.09a43.26,43.26,0,0,1,16-12A40,40,0,0,1,77,.26,49.73,49.73,0,0,1,97.44,7.67a66.57,66.57,0,0,1,17.1,15.79,81.91,81.91,0,0,1,12,21.91,83.72,83.72,0,0,1,5.05,25.73,73.69,73.69,0,0,1-3.07,24.76,55.89,55.89,0,0,1-10.35,19.34,42.59,42.59,0,0,1-16,12A38.7,38.7,0,0,1,82.05,130.08Z"/><path class="cls-4" d="M82.9,127.92a47.86,47.86,0,0,1-20-7.33,65.41,65.41,0,0,1-16.72-15.54,81.29,81.29,0,0,1-11.7-21.47,84.82,84.82,0,0,1-5-25.25,72.44,72.44,0,0,1,3-24.28A54,54,0,0,1,42.57,15.12,40.78,40.78,0,0,1,58.17,3.36,38.44,38.44,0,0,1,77.75.66,48.52,48.52,0,0,1,97.75,8,64.78,64.78,0,0,1,114.42,23.5,81.38,81.38,0,0,1,126.17,45a84.85,84.85,0,0,1,5,25.26,72.39,72.39,0,0,1-2.95,24.31,54.47,54.47,0,0,1-10.08,18.93,41.47,41.47,0,0,1-15.6,11.76A39,39,0,0,1,82.9,127.92Z"/><path class="cls-5" d="M83.47,115.78c-11-1.42-21.15-8.54-28.74-18.83a66.64,66.64,0,0,1-9.14-17.61,73.52,73.52,0,0,1-4-20.57C41,44.44,45,32,51.77,23.57S68.3,10.61,79.27,12,100.46,20.52,108,30.82a66.85,66.85,0,0,1,9.18,17.6,72,72,0,0,1,4,20.62c.62,14.32-3.33,26.72-10.17,35.2S94.45,117.2,83.47,115.78Z"/><path class="cls-3" d="M83.33,112.19c-10-1.32-19.34-8-26.31-17.62a64.26,64.26,0,0,1-8.41-16.38A69.14,69.14,0,0,1,45,59C44.42,45.65,48,34.1,54.24,26.27s15.09-12,25.18-10.65,19.38,8,26.29,17.58a64.42,64.42,0,0,1,8.43,16.42,67.26,67.26,0,0,1,3.61,19.18c.53,13.34-3,24.83-9.29,32.71S93.37,113.52,83.33,112.19Z"/><path class="cls-6" d="M53,27.89a26.2,26.2,0,0,1,21.12-6.43c10.06,1.36,19.38,8,26.29,17.59a64.09,64.09,0,0,1,8.43,16.42c2.07,6.05,3.23,9.59,3.61,19.18s-2.65,23.43-8.18,31.24c-5.77,5-12,7.66-21.12,6.43s-19.34-8-26.3-17.62a64.67,64.67,0,0,1-8.42-16.39c-2.06-6-3.22-9.55-3.65-19.16S47.48,35.71,53,27.89Z"/><path class="cls-7" d="M61.28,88l9.83-3.34c.71-1.94,1.42-3.85,2.08-5.78-.64-2.12-1.28-4.19-1.92-6.31S70,68.33,69.33,66.22,68,62,67.4,59.91l-1.93-6.34c-1.74.53-3.51,1.11-5.25,1.64.6,2,1.19,3.89,1.75,5.87l1.79,5.86,1.79,5.86c.6,2,1.2,3.94,1.79,5.86-2.08.69-4.13,1.36-6.16,2.06-.6-2-1.16-3.94-1.76-5.91s-1.16-3.94-1.76-5.91S56.5,65,55.9,63s-1.17-4-1.77-5.91c-1.73.56-3.51,1.11-5.25,1.63.62,2.17,1.23,4.3,1.89,6.45S52,69.44,52.65,71.6s1.26,4.28,1.88,6.44,1.26,4.28,1.88,6.45C58,85.67,59.64,86.86,61.28,88Zm16.66-5.62c1.8-.62,3.56-1.2,5.33-1.78-.51-1.55-1-3.07-1.45-4.63s-1-3.06-1.47-4.66l8.25-2.7c.68-1.9,1.35-3.79,2-5.68q-.91-2.78-1.82-5.53c-.61-1.84-1.21-3.68-1.78-5.54-1.65-1.17-3.3-2.31-4.94-3.44-4.46,1.38-8.93,2.76-13.42,4.19.76,2.49,1.52,5,2.32,7.44s1.56,5,2.32,7.45,1.55,5,2.31,7.44S77.18,79.89,77.94,82.37Zm.39-17.55c-.76-2.48-1.55-4.92-2.31-7.4,2.09-.69,4.22-1.34,6.34-2,.74,2.29,1.48,4.57,2.23,6.86,0,.15.1.34.15.52C82.58,63.47,80.46,64.16,78.33,64.82Zm17,11.68c2-.69,4-1.35,6-2,.09-1.82.21-3.7.3-5.52s.18-3.65.26-5.52c1.21,1.4,2.41,2.8,3.58,4.22s2.37,2.81,3.58,4.21c2-.69,4-1.35,6-2-1.76-2.08-3.55-4.1-5.32-6.22s-3.51-4.15-5.32-6.25c.13-2.7.24-5.43.38-8.08s.26-5.39.38-8.13c-1.93.63-3.9,1.24-5.88,1.85-.09,1.82-.18,3.65-.28,5.44s-.19,3.65-.32,5.49c-1.17-1.45-2.34-2.87-3.51-4.28s-2.34-2.87-3.51-4.28c-2,.61-3.95,1.21-5.92,1.86L91,53.65c1.73,2.13,3.51,4.28,5.27,6.36-.16,2.74-.32,5.49-.47,8.23S95.54,73.75,95.38,76.5Z"/></g></g></svg>