<svg xmlns="http://www.w3.org/2000/svg" xmlns:xlink="http://www.w3.org/1999/xlink" viewBox="0 0 72.89 72.11"><defs><style>.cls-1{fill:#aba803;}.cls-1,.cls-2,.cls-3,.cls-4,.cls-5{fill-rule:evenodd;}.cls-2{fill:#ded700;}.cls-3{fill:url(#radial-gradient);}.cls-4,.cls-6{fill:#232323;}.cls-5{fill:url(#radial-gradient-2);}</style><radialGradient id="radial-gradient" cx="-931.25" cy="550.89" r="1" gradientTransform="matrix(5.74, -34.52, -35.99, -5.99, 25183.14, -28817.16)" gradientUnits="userSpaceOnUse"><stop offset="0" stop-color="#fff915"/><stop offset="1" stop-color="#ece735"/></radialGradient><radialGradient id="radial-gradient-2" cx="-935.24" cy="539.4" r="1" gradientTransform="matrix(3.99, -23.99, -25.01, -4.16, 17249.27, -20168.29)" xlink:href="#radial-gradient"/></defs><g id="Layer_2" data-name="Layer 2"><g id="Layer_1-2" data-name="Layer 1"><path class="cls-1" d="M30.24,3.47C35.85,2.38,38,.69,40.41.82,46.65,2.35,53,3.55,58.53,7.69A36.49,36.49,0,0,1,72.28,30.52,37.64,37.64,0,0,1,67.37,57C62.74,64.41,54,70.13,46.71,71.56s-13.89-.14-20.46-2c-2.74-1.3-1.91-2.07-4.69-3.26l.51-1.53A36.79,36.79,0,0,1,10.49,43.67a37.59,37.59,0,0,1,4.9-26.47C20,9.82,24.62,4.56,30.24,3.47Z"/><path class="cls-1" d="M29.07,3.2C34.68,2.11,37,.45,39.35.58c6.37,1.39,12.52,2.7,18,6.84A36.49,36.49,0,0,1,71.11,30.25,37.64,37.64,0,0,1,66.2,56.72c-4.63,7.42-13.35,13.15-20.66,14.57s-14.15-.51-20.74-2.37c-1.87-.9-4.59-2.35-3.91-4.42A36.83,36.83,0,0,1,9.32,43.43,37.66,37.66,0,0,1,14.21,17C18.85,9.55,23.45,4.29,29.07,3.2Z"/><path class="cls-2" d="M24.52,1.09a35.29,35.29,0,0,1,26.78,4A38.42,38.42,0,0,1,68.62,26.92a35.29,35.29,0,0,1-2.34,27A32.28,32.28,0,0,1,45.72,70.18a35.37,35.37,0,0,1-26.78-3.94A38.43,38.43,0,0,1,1.64,44.35,35.37,35.37,0,0,1,4,17.38,32.31,32.31,0,0,1,24.52,1.09Z"/><path class="cls-3" d="M24.89,2.31A34.16,34.16,0,0,1,50.73,6.13,37.15,37.15,0,0,1,67.44,27.25a34.24,34.24,0,0,1-2.25,26A31.2,31.2,0,0,1,45.37,69a34.1,34.1,0,0,1-25.86-3.83A37.17,37.17,0,0,1,2.8,44,34.14,34.14,0,0,1,5.05,18,31.22,31.22,0,0,1,24.89,2.31Z"/><path class="cls-4" d="M26.59,8.62a27.3,27.3,0,0,1,20.77,3.06A29.86,29.86,0,0,1,60.78,28.74,27.79,27.79,0,0,1,59,49.8,25.13,25.13,0,0,1,43,62.52,27.28,27.28,0,0,1,22.2,59.45,29.92,29.92,0,0,1,8.79,42.4a27.82,27.82,0,0,1,1.82-21.07A25.15,25.15,0,0,1,26.59,8.62Z"/><path class="cls-2" d="M27.11,10.35a25.47,25.47,0,0,1,19.44,2.88,28,28,0,0,1,12.55,16,26,26,0,0,1-1.7,19.71,23.56,23.56,0,0,1-14.93,11.9A25.46,25.46,0,0,1,23,57.93,27.92,27.92,0,0,1,10.5,42a25.81,25.81,0,0,1,1.7-19.69A23.44,23.44,0,0,1,27.11,10.35Z"/><path class="cls-5" d="M58.53,27.5c.21.54.39,1.1.57,1.68a26,26,0,0,1-1.7,19.71,23.56,23.56,0,0,1-14.93,11.9A25.46,25.46,0,0,1,23,57.93a28,28,0,0,1-9.51-9.29c-.21-.54-.39-1.1-.57-1.68a25.86,25.86,0,0,1,1.7-19.69,23.56,23.56,0,0,1,14.93-11.9A25.48,25.48,0,0,1,49,18.25,27.39,27.39,0,0,1,58.53,27.5Z"/><path class="cls-6" d="M41.06,55.93l1.2-7.16c-.72-1.05-1.44-2.12-2.14-3.17-2.36-.56-4.69-1.14-7-1.71l-7-1.7L25.4,46l6.51,1.61,6.5,1.61c-.24,1.49-.49,3-.74,4.47-2.16-.55-4.33-1.11-6.5-1.65l-6.5-1.65L24,54.14l7,1.83c2.34.62,4.67,1.22,7,1.83C39.06,57.2,40.06,56.56,41.06,55.93Zm2-12.07c.22-1.29.43-2.59.65-3.88l-2.61-.59-2.6-.6,1-6-2.17-3.1c-1-.22-2.12-.46-3.16-.7s-2.12-.46-3.17-.7c-1,.63-2,1.29-3,1.93-.54,3.22-1.08,6.44-1.61,9.64l8.34,2C37.52,42.53,40.28,43.2,43.07,43.86Zm-8.23-6c-1.4-.32-2.79-.64-4.16-1,.25-1.53.51-3.06.76-4.59,1.29.29,2.59.59,3.9.87l.29.06C35.35,34.83,35.09,36.38,34.84,37.91ZM45.18,31.2l.72-4.36c-.84-.67-1.71-1.32-2.58-2l-2.59-2c1-.26,2-.54,3.05-.81l3.06-.82c.24-1.46.48-2.89.72-4.34L43,18.16,38.5,19.37c-1.29-1-2.58-1.93-3.84-2.9l-3.87-2.86c-.24,1.41-.47,2.82-.71,4.23l2.6,1.95c.87.66,1.72,1.33,2.59,2l-3.05.79c-1,.26-2,.5-3,.77-.23,1.41-.47,2.82-.71,4.25L33,26.45l4.51-1.15c1.29,1,2.57,2,3.83,3S43.9,30.2,45.18,31.2Z"/></g></g></svg>