<svg xmlns="http://www.w3.org/2000/svg" xmlns:xlink="http://www.w3.org/1999/xlink" viewBox="0 0 141.47 133.49"><defs><style>.cls-1,.cls-2,.cls-3,.cls-4,.cls-5,.cls-6{fill-rule:evenodd;}.cls-1{fill:url(#linear-gradient);}.cls-2{fill:url(#linear-gradient-2);}.cls-3{fill:#ded700;}.cls-4{fill:url(#radial-gradient);}.cls-5,.cls-7{fill:#232323;}.cls-6{fill:#f7f123;}</style><linearGradient id="linear-gradient" x1="13.65" y1="57.89" x2="110.29" y2="102.4" gradientTransform="matrix(1, 0, 0, -1, 0, 134.37)" gradientUnits="userSpaceOnUse"><stop offset="0" stop-color="#cbc401"/><stop offset="0.42" stop-color="#aba803"/><stop offset="0.76" stop-color="#ded700"/><stop offset="1" stop-color="#cbc401"/></linearGradient><linearGradient id="linear-gradient-2" x1="13.52" y1="54.76" x2="116.84" y2="102.86" gradientTransform="matrix(1, 0, 0, -1, 0, 134.37)" gradientUnits="userSpaceOnUse"><stop offset="0" stop-color="#cbc401"/><stop offset="0.21" stop-color="#948a02"/><stop offset="0.42" stop-color="#aba803"/><stop offset="0.76" stop-color="#fff71a"/><stop offset="1" stop-color="#cbc401"/></linearGradient><radialGradient id="radial-gradient" cx="-620.5" cy="611.7" r="1" gradientTransform="matrix(35.31, 59.9, 56.18, -33.12, -12346.23, 57529.96)" gradientUnits="userSpaceOnUse"><stop offset="0" stop-color="#fff915"/><stop offset="1" stop-color="#ece735"/></radialGradient></defs><g id="Layer_2" data-name="Layer 2"><g id="Layer_1-2" data-name="Layer 1"><path class="cls-1" d="M.27,70A48.91,48.91,0,0,1,2.89,48.52,66.43,66.43,0,0,1,14.34,28.7,78.57,78.57,0,0,1,32.71,12.58,82,82,0,0,1,56.29,2.34,71.51,71.51,0,0,1,80.75.3a54.93,54.93,0,0,1,20.84,6.11,43.12,43.12,0,0,1,15,13.09,40.18,40.18,0,0,1,7.07,18.93,48.35,48.35,0,0,1-2.62,21.45,64.77,64.77,0,0,1-11.42,19.89A77.18,77.18,0,0,1,91.25,95.85a82.06,82.06,0,0,1-23.59,10.24,70.19,70.19,0,0,1-24.45,2A56.17,56.17,0,0,1,22.36,102a42.57,42.57,0,0,1-15-13.13A40.31,40.31,0,0,1,.27,70Z"/><path class="cls-2" d="M1.42,70.31C-2.66,45.76,12.69,26.12,31.57,14.17A86.75,86.75,0,0,1,56,3.51,74.46,74.46,0,0,1,81.27,1.1a56.54,56.54,0,0,1,21.45,6,42.42,42.42,0,0,1,15.23,13c6.25,8,11.59,16.68,17.3,25-26.53,17.3-32.07,79-100.71,65.44-3.52,2.27-6.37,4.16-9.86,6.41C15.25,102.71,4,85.77,1.42,70.31Z"/><path class="cls-3" d="M15.53,95.25A48.78,48.78,0,0,1,18.41,73.7,67.47,67.47,0,0,1,30.19,53.6,82.07,82.07,0,0,1,49,37.23,85.18,85.18,0,0,1,73,26.75a74.19,74.19,0,0,1,24.9-2.29,55.83,55.83,0,0,1,21.11,6,43.16,43.16,0,0,1,15.17,13,40.12,40.12,0,0,1,7.05,19A49.65,49.65,0,0,1,138.39,84a66.67,66.67,0,0,1-11.75,20.09,82,82,0,0,1-18.83,16.38,83.93,83.93,0,0,1-24,10.45,74.13,74.13,0,0,1-24.84,2.31,55.83,55.83,0,0,1-21.11-6,42.54,42.54,0,0,1-15.17-13A38.76,38.76,0,0,1,15.53,95.25Z"/><path class="cls-4" d="M17.82,95.62a48,48,0,0,1,2.89-21.07A65.1,65.1,0,0,1,32.3,54.88a81.65,81.65,0,0,1,18.46-16A84.68,84.68,0,0,1,74.34,28.52,72.56,72.56,0,0,1,98.7,26.25,54,54,0,0,1,119.35,32a40.93,40.93,0,0,1,14.84,12.72A38.37,38.37,0,0,1,141,63.29a48.37,48.37,0,0,1-2.86,21.11A64.79,64.79,0,0,1,126.58,104a81.69,81.69,0,0,1-18.47,16.09,85.13,85.13,0,0,1-23.6,10.29,72.78,72.78,0,0,1-24.38,2.33,54.36,54.36,0,0,1-20.65-5.79,41.43,41.43,0,0,1-14.84-12.71A39.12,39.12,0,0,1,17.82,95.62Z"/><path class="cls-5" d="M29.81,93.57c-1-11,3.8-22.49,12.22-32.11A66.62,66.62,0,0,1,57.27,48.75a73.41,73.41,0,0,1,19.23-8.3c13.89-3.64,26.87-2.46,36.57,2.38s16.21,13.36,17.2,24.38-3.78,22.52-12.22,32.11a67,67,0,0,1-15.22,12.74,72,72,0,0,1-19.29,8.29C69.68,124,56.73,122.82,47,118S30.77,104.6,29.81,93.57Z"/><path class="cls-3" d="M33.28,92.66c-.87-10.09,3.65-20.6,11.57-29.47A64.46,64.46,0,0,1,59,51.46,69.2,69.2,0,0,1,77,43.78c13-3.39,25-2.35,34,2s15,12.17,15.81,22.31-3.63,20.64-11.54,29.46A64.82,64.82,0,0,1,101,109.34,67.57,67.57,0,0,1,83,117c-12.91,3.38-24.91,2.35-33.94-2.06S34.14,102.75,33.28,92.66Z"/><path class="cls-6" d="M109.13,45a26.15,26.15,0,0,1,10.8,19.25c.83,10.11-3.63,20.64-11.54,29.45a64.62,64.62,0,0,1-14.23,11.76c-5.47,3.31-8.67,5.21-18,7.63s-23.46,2.44-32.27-1.28c-6.15-4.56-10.07-10.13-10.81-19.25S36.78,72,44.7,63.08A64.27,64.27,0,0,1,58.89,51.35c5.48-3.32,8.65-5.19,17.94-7.67S100.29,41.24,109.13,45Z"/><path class="cls-7" d="M52.19,65.94l5.37,8.88c2,.27,4.06.56,6.09.8l5.75-3.24,5.78-3.25,5.75-3.23,5.78-3.26c-.89-1.58-1.84-3.19-2.73-4.77-1.79,1-3.55,2-5.36,3l-5.34,3-5.34,3-5.34,3c-1.12-1.88-2.21-3.74-3.33-5.57,1.79-1,3.6-2,5.39-3s3.61-2,5.4-3,3.6-2,5.4-3,3.6-2,5.39-3c-.92-1.56-1.83-3.18-2.72-4.77-2,1.07-3.93,2.12-5.89,3.22S68.33,52.92,66.35,54s-3.91,2.15-5.89,3.22-3.91,2.15-5.89,3.22C53.75,62.26,52.94,64.09,52.19,65.94ZM61.25,81c1,1.62,1.94,3.22,2.89,4.83,1.39-.84,2.78-1.62,4.2-2.42S71.13,81.8,72.58,81L77,88.46l6,.76,5-3c1.67-1,3.34-2,5-2.92.79-1.87,1.55-3.72,2.3-5.57-2.3-4.06-4.61-8.12-7-12.2-2.26,1.27-4.53,2.55-6.77,3.86S77.06,72,74.79,73.28,70.28,75.87,68,77.14,63.51,79.73,61.25,81Zm17.22-3.38c2.27-1.28,4.48-2.57,6.74-3.84,1.12,1.89,2.22,3.83,3.35,5.75l-6.22,3.65-.48.26C80.71,81.48,79.57,79.56,78.47,77.62ZM70.73,96.78c1.1,1.79,2.17,3.61,3.24,5.43,1.81-.31,3.66-.59,5.46-.89l5.45-.93c-1.11,1.48-2.22,3-3.35,4.4s-2.24,2.92-3.35,4.4c1.1,1.79,2.17,3.61,3.28,5.41,1.65-2.16,3.24-4.34,4.93-6.52s3.3-4.33,5-6.55c2.66-.45,5.35-.92,8-1.35l8-1.38c-1-1.75-2-3.55-3.06-5.35-1.81.3-3.61.61-5.38.89s-3.6.61-5.43.87c1.17-1.46,2.3-2.9,3.43-4.34s2.29-2.91,3.42-4.35c-1-1.8-2-3.6-3.08-5.38-1.74,2.16-3.44,4.31-5.15,6.46S88.67,91.94,87,94.11l-8.14,1.3C76.15,95.9,73.44,96.34,70.73,96.78Z"/></g></g></svg>